<svg xmlns="http://www.w3.org/2000/svg" width="970" height="933" fill="none" viewBox="0 0 970 933"><path fill="#8E5D45" d="M665.77 909.938C665.77 923.305 679.244 932.398 691.304 926.706C855.998 848.964 970 681.027 970 486.388C970 217.763 752.858 0 485 0C217.142 0 0 217.763 0 486.388C0 684.261 117.822 854.537 286.948 930.506C301.533 937.058 317.452 925.965 317.452 909.938C317.452 854.304 343.389 804.746 383.798 772.761C285.827 740.849 216.977 665.403 216.977 577.415C216.977 547.916 224.715 519.827 238.696 494.315C244.868 483.052 250.505 471.441 255.867 459.724C232.6 464.677 209.318 459.495 193.345 443.477C165.703 415.756 170.421 366.081 203.882 332.524C237.343 298.967 286.876 294.236 314.518 321.957C325.552 333.023 331.43 347.587 332.381 363.228C342.344 356.496 353.033 350.412 364.342 345.058V305.157C364.342 299.917 368.01 295.397 373.126 294.333L404.126 287.885C407.918 287.096 411.019 284.37 412.295 280.704L468.937 117.954C470.482 113.516 474.656 110.543 479.344 110.543H497.181C501.868 110.543 506.043 113.516 507.588 117.954L564.23 280.704C565.506 284.37 568.607 287.096 572.398 287.885L603.399 294.333C608.515 295.397 612.183 299.917 612.183 305.157V346.054C612.183 346.799 612.109 347.531 611.966 348.24C620.975 352.826 629.56 357.886 637.664 363.375C638.587 347.679 644.467 333.058 655.536 321.957C683.178 294.236 732.711 298.967 766.172 332.524C799.633 366.081 804.35 415.756 776.709 443.477C761.339 458.89 739.201 464.271 716.821 460.241C720.759 466.934 724.846 473.532 729.139 479.976C748.569 509.14 759.549 542.277 759.549 577.415C759.549 663.994 692.887 738.428 597.415 771.194C638.971 803.114 665.77 853.387 665.77 909.938Z"/><path fill="#8E5D45" d="M304.23 909.938C304.23 923.305 290.756 932.398 278.696 926.706C114.002 848.964 0 681.027 0 486.388C0 217.763 217.142 0 485 0C752.858 0 970 217.763 970 486.388C970 684.261 852.178 854.537 683.052 930.506C668.467 937.058 652.548 925.965 652.548 909.938C652.548 854.304 626.611 804.746 586.202 772.761C684.173 740.849 753.023 665.403 753.023 577.415C753.023 547.916 745.285 519.827 731.304 494.315C725.132 483.052 719.495 471.441 714.133 459.724C737.4 464.677 760.682 459.495 776.655 443.477C804.297 415.756 799.579 366.081 766.118 332.524C732.657 298.967 683.124 294.236 655.482 321.957C644.448 333.023 638.57 347.587 637.619 363.228C627.656 356.496 616.967 350.412 605.658 345.058V305.157C605.658 299.917 601.99 295.397 596.874 294.333L565.874 287.885C562.082 287.096 558.981 284.37 557.705 280.704L501.063 117.954C499.518 113.516 495.344 110.543 490.656 110.543H472.819C468.132 110.543 463.957 113.516 462.412 117.954L405.77 280.704C404.494 284.37 401.393 287.096 397.602 287.885L366.601 294.333C361.485 295.397 357.817 299.917 357.817 305.157V346.054C357.817 346.799 357.891 347.531 358.034 348.24C349.025 352.826 340.44 357.886 332.336 363.375C331.413 347.679 325.533 333.058 314.464 321.957C286.822 294.236 237.289 298.967 203.828 332.524C170.367 366.081 165.65 415.756 193.291 443.477C208.661 458.89 230.799 464.271 253.179 460.241C249.241 466.934 245.154 473.532 240.861 479.976C221.431 509.14 210.451 542.277 210.451 577.415C210.451 663.994 277.113 738.428 372.585 771.194C331.029 803.114 304.23 853.387 304.23 909.938Z"/></svg>