<?xml version="1.0" standalone="no"?>
<!DOCTYPE svg PUBLIC "-//W3C//DTD SVG 20010904//EN"
 "http://www.w3.org/TR/2001/REC-SVG-20010904/DTD/svg10.dtd">
<svg version="1.0" xmlns="http://www.w3.org/2000/svg"
 width="158.000000pt" height="158.000000pt" viewBox="0 0 158.000000 158.000000"
 preserveAspectRatio="xMidYMid meet">

<g transform="translate(0.000000,158.000000) scale(0.100000,-0.100000)"
fill="#000000" stroke="none">
<path d="M0 1396 c0 -161 2 -185 16 -190 9 -4 24 0 34 9 20 18 35 18 74 2 l30
-13 -37 0 c-20 0 -44 -7 -54 -16 -13 -12 -23 -14 -33 -8 -25 16 -30 11 -28
-22 2 -25 13 -43 45 -71 l43 -39 -22 -18 c-21 -17 -25 -17 -46 -4 -20 13 -22
13 -22 -6 0 -11 6 -20 13 -20 8 0 8 -3 2 -8 -7 -4 -12 -109 -14 -286 l-3 -279
48 7 c43 6 63 18 64 39 0 4 -10 7 -22 8 -14 0 -17 2 -8 6 36 11 59 27 54 35
-4 5 3 4 15 -3 15 -10 19 -20 14 -39 -6 -28 -56 -77 -61 -61 -7 22 -33 10 -43
-19 -10 -28 -29 -41 -29 -20 0 6 -7 10 -15 10 -13 0 -15 -28 -15 -195 l0 -195
54 0 c35 0 58 5 66 15 7 8 18 15 24 14 7 0 6 -2 -2 -6 -42 -17 10 -23 200 -23
l211 0 -19 23 -19 22 26 -23 25 -22 505 2 504 3 3 48 c3 46 3 47 -27 47 -17 0
-42 -11 -60 -26 -22 -18 -35 -23 -47 -16 -14 8 -10 14 23 41 37 31 53 34 96
16 14 -6 17 -2 17 29 0 26 -4 34 -14 30 -11 -4 -13 0 -9 15 3 11 9 18 14 15 5
-3 9 71 9 170 0 122 -4 177 -12 182 -7 5 -9 1 -6 -13 4 -16 1 -19 -12 -16 -10
3 -21 16 -25 30 -3 14 -31 50 -61 79 -29 29 -54 61 -53 71 0 17 1 17 7 0 4
-10 19 -25 33 -35 15 -9 45 -29 67 -44 22 -15 45 -35 51 -45 7 -13 10 82 9
317 0 184 -3 324 -5 310 -8 -53 -37 -99 -80 -130 -53 -38 -50 -49 6 -22 l40
20 -17 -23 c-9 -13 -29 -31 -44 -42 -16 -10 -28 -24 -28 -30 0 -16 34 -17 62
-2 36 19 16 -13 -25 -40 -36 -24 -37 -26 -32 -70 3 -25 1 -68 -4 -96 l-9 -50
-2 70 c-1 39 -4 65 -6 58 -6 -13 -35 -6 -46 11 -9 13 20 46 41 47 9 0 11 3 4
5 -6 3 -26 -2 -43 -11 -18 -9 -34 -14 -37 -11 -3 3 -6 46 -6 96 0 73 4 94 18
110 20 23 9 26 -17 6 -14 -10 -18 -30 -20 -87 l-1 -74 -6 66 c-3 36 -12 73
-19 82 -16 19 -10 23 59 40 l53 14 1 53 1 52 -17 -38 c-9 -22 -24 -46 -34 -54
-15 -13 26 74 72 154 7 12 13 30 13 40 0 13 3 17 10 10 11 -11 -14 -139 -32
-162 -10 -12 -10 -14 0 -8 8 5 12 1 12 -10 0 -13 7 -8 25 16 28 38 32 27 10
-27 l-16 -37 26 24 c43 41 75 105 75 152 0 31 3 39 10 28 7 -10 10 26 10 113
l0 127 -245 0 c-236 0 -245 -1 -245 -19 0 -11 4 -22 9 -25 13 -8 6 -83 -10
-103 -9 -11 -10 -14 -1 -9 24 14 12 -13 -15 -34 -20 -15 -22 -18 -6 -11 31 16
35 14 23 -10 -7 -13 -17 -18 -27 -15 -10 4 -28 -7 -50 -31 -25 -28 -31 -32
-22 -13 7 13 19 31 26 39 8 8 12 23 9 36 -3 13 0 27 8 34 16 13 29 54 15 45
-11 -7 -11 -4 0 32 24 77 24 84 -8 84 -37 0 -48 -15 -21 -30 30 -16 24 -51
-15 -87 -29 -27 -34 -37 -29 -62 5 -22 2 -32 -13 -39 -28 -15 -57 -10 -65 13
-6 15 -7 13 -4 -8 2 -15 -1 -30 -5 -33 -5 -3 -9 -56 -9 -117 0 -96 3 -119 24
-162 27 -60 43 -74 88 -81 27 -5 41 -1 64 18 37 31 119 59 133 45 7 -7 19 -4
35 7 15 9 26 12 26 6 0 -6 -18 -19 -40 -28 -27 -12 -37 -21 -32 -30 6 -9 19
-7 55 11 25 13 44 20 40 14 -10 -17 -184 -94 -305 -136 -91 -31 -123 -38 -145
-31 -24 7 -25 8 -5 9 l22 1 0 215 c0 141 -4 215 -10 215 -6 0 -13 -7 -16 -15
-8 -19 -92 -70 -101 -61 -4 4 4 14 18 23 51 35 99 91 99 115 0 38 -10 40 -47
8 -49 -43 -60 -37 -14 9 41 41 67 107 70 174 l2 37 -112 0 -111 0 5 -37 5 -38
-11 38 c-10 35 -12 37 -54 37 -37 0 -48 -5 -76 -36 -39 -44 -71 -111 -55 -116
7 -3 8 -10 4 -17 -6 -10 -10 -10 -16 -2 -4 7 -14 -4 -25 -29 -18 -40 -29 -48
-40 -30 -10 16 45 117 97 175 l50 55 -116 0 c-114 0 -116 0 -116 -23 0 -13 4
-27 9 -32 16 -17 64 -184 57 -200 -10 -27 -23 -16 -35 30 -6 25 -14 45 -17 45
-3 0 -3 -8 0 -17 3 -10 2 -24 -3 -31 -15 -24 -33 72 -29 152 l3 76 -127 0
-128 0 0 -184z m1203 71 c27 -34 63 -86 46 -67 -3 3 -36 38 -74 79 -44 47 -58
66 -38 52 18 -12 48 -41 66 -64z m113 -44 c14 -28 24 -60 21 -70 -2 -12 -17 9
-42 62 -21 44 -47 94 -58 110 -14 23 -10 21 17 -10 20 -22 48 -63 62 -92z
m130 59 c1 -31 -5 -83 -13 -115 -17 -61 -33 -85 -26 -39 3 23 2 24 -6 7 -5
-11 -19 -53 -31 -94 -12 -40 -23 -71 -25 -69 -2 2 2 26 10 53 21 68 18 89 -5
35 -27 -65 -24 -42 11 79 30 106 38 126 40 100 1 -24 27 54 28 85 2 51 15 17
17 -42z m-652 20 c-8 -43 -43 -73 -119 -102 -23 -9 -24 -7 -23 23 1 34 34 65
105 102 34 18 43 12 37 -23z m230 -58 c-1 -15 -6 -30 -11 -33 -5 -3 -8 -19 -8
-34 1 -15 -5 -33 -13 -40 -8 -6 -18 -22 -23 -35 -12 -31 -40 -25 -52 11 -11
35 -2 47 18 21 11 -15 14 -16 15 -4 0 8 9 21 21 28 16 10 20 20 16 40 -4 19 1
34 16 50 11 12 21 22 22 22 1 0 1 -12 -1 -26z m127 -1 c13 -15 16 -21 7 -14
-24 18 -23 5 3 -27 22 -28 8 -46 -16 -21 -12 12 -30 89 -22 89 2 0 14 -12 28
-27z m-537 -6 c-2 -7 -35 -28 -72 -46 -51 -25 -62 -28 -47 -12 15 15 108 69
122 71 1 0 0 -6 -3 -13z m666 -27 c0 -5 -4 -10 -10 -10 -5 0 -10 5 -10 10 0 6
5 10 10 10 6 0 10 -4 10 -10z m-658 -35 c3 -14 3 -23 0 -20 -3 3 -16 -2 -29
-11 -14 -8 -42 -22 -64 -29 -35 -13 -41 -13 -46 1 -3 9 1 22 8 29 19 19 112
64 120 59 4 -2 9 -15 11 -29z m-362 -43 c16 -52 23 -57 52 -41 21 11 22 11 9
-5 -8 -10 -47 -33 -85 -52 l-71 -35 35 30 c19 17 38 31 41 31 4 0 3 17 -2 38
-11 48 -12 99 -1 87 5 -6 15 -29 22 -53z m888 14 c3 -21 0 -26 -10 -20 -10 6
-10 4 1 -9 7 -9 9 -17 3 -17 -18 0 -30 25 -25 53 7 35 27 30 31 -7z m-697 10
c-9 -11 -8 -24 2 -55 8 -22 11 -38 6 -35 -5 2 -22 -2 -38 -11 -76 -39 -97 2
-23 43 54 30 48 41 -7 12 -74 -37 -35 5 44 48 27 15 30 15 16 -2z m747 -19 c2
-10 -3 -17 -12 -17 -18 0 -29 16 -21 31 9 14 29 6 33 -14z m-149 -16 c-13 -11
-26 -18 -28 -16 -6 7 24 34 38 35 7 0 3 -8 -10 -19z m55 -7 c21 -20 12 -34
-22 -34 -25 1 -25 2 -9 14 19 15 24 31 5 20 -7 -4 -8 -3 -4 4 9 15 11 15 30
-4z m-414 -18 c0 -7 -62 -43 -93 -55 -42 -16 -32 -6 26 28 50 29 67 36 67 27z
m-355 -107 c7 -11 6 -12 -6 -2 -11 9 -20 8 -39 -2 -14 -8 -31 -14 -37 -15 -20
0 -15 38 6 45 10 3 27 15 37 26 l19 21 6 -29 c3 -17 10 -36 14 -44z m572 19
c-3 -8 -6 -5 -6 6 -1 11 2 17 5 13 3 -3 4 -12 1 -19z m-382 -14 c-25 -20 -86
-47 -92 -41 -6 7 79 57 97 57 11 -1 10 -5 -5 -16z m-352 -58 c3 -10 10 -16 14
-13 23 14 8 -34 -14 -49 -26 -17 -27 -17 -70 29 -24 25 -43 52 -43 60 0 24 31
29 54 10 12 -10 15 -11 9 -3 -24 26 -13 32 16 8 16 -13 31 -31 34 -42z m527
56 c0 -4 -21 -20 -48 -37 -26 -16 -49 -32 -52 -35 -8 -9 -40 -11 -40 -3 1 12
102 79 123 80 9 1 17 -1 17 -5z m57 -18 c-3 -3 -12 -4 -19 -1 -8 3 -5 6 6 6
11 1 17 -2 13 -5z m288 -4 c3 -5 -1 -10 -10 -10 -13 0 -11 -5 7 -22 13 -13 16
-17 7 -10 -25 20 -76 18 -102 -4 -20 -17 -20 -16 2 9 14 15 21 27 17 27 -4 0
-4 5 -1 10 3 6 21 10 40 10 19 0 37 -4 40 -10z m-625 -45 c0 -8 -75 -55 -89
-55 -17 0 58 58 77 59 6 1 12 -1 12 -4z m605 -5 c3 -5 0 -10 -8 -10 -22 0 -47
-33 -38 -49 5 -8 16 -11 24 -8 12 4 12 1 3 -18 -16 -35 -66 -7 -66 39 0 41 66
77 85 46z m245 -20 c-27 -17 -172 -71 -178 -66 -2 3 4 9 14 13 10 4 50 19 89
34 74 29 100 35 75 19z m-690 -5 c0 -12 -77 -55 -99 -55 -22 0 -21 2 12 24 20
14 46 26 59 29 13 2 24 5 26 6 1 0 2 -1 2 -4z m-475 -25 c10 -11 16 -20 13
-20 -3 0 -13 9 -23 20 -10 11 -16 20 -13 20 3 0 13 -9 23 -20z m579 -5 c-4 -8
-8 -15 -10 -15 -2 0 -4 7 -4 15 0 8 4 15 10 15 5 0 7 -7 4 -15z m-474 1 c0 -2
-7 -6 -15 -10 -8 -3 -15 -1 -15 4 0 6 7 10 15 10 8 0 15 -2 15 -4z m14 -88
c-8 -130 -27 -143 -38 -28 -7 73 1 100 30 100 10 0 12 -16 8 -72z m33 40 c-3
-7 -5 -2 -5 12 0 14 2 19 5 13 2 -7 2 -19 0 -25z m202 -24 l-24 -25 25 -21 25
-20 -36 20 c-21 12 -42 17 -49 12 -7 -5 -20 -6 -27 -3 -18 7 63 63 91 63 18 0
18 -2 -5 -26z m-343 -53 c-7 -77 -13 -101 -28 -101 -5 0 -7 3 -5 8 3 4 2 38
-2 75 -6 56 -4 70 8 77 30 18 34 10 27 -59z m124 -48 c-11 -17 -11 -17 -6 0 3
10 7 40 8 65 l2 47 3 -47 c2 -26 -1 -56 -7 -65z m125 32 c-34 -24 -63 -57 -68
-77 -5 -17 -1 -18 37 -13 81 12 154 -44 139 -106 -6 -24 -53 -100 -53 -86 0
21 -39 -17 -45 -43 -4 -16 -11 -30 -16 -30 -6 0 -7 -6 -2 -12 13 -22 10 -59
-4 -54 -11 5 -11 1 -2 -16 9 -17 19 -98 12 -98 -2 0 -15 18 -29 40 -23 34 -26
48 -22 95 3 30 3 55 1 55 -2 0 -15 -7 -28 -16 -13 -9 -30 -14 -37 -11 -7 2
-26 -5 -41 -16 -16 -10 -31 -17 -34 -14 -8 9 59 47 82 47 24 0 78 39 55 40 -8
0 10 12 40 26 64 30 89 50 101 82 13 34 2 45 -23 20 -17 -17 -29 -20 -75 -16
-65 6 -94 27 -72 54 8 9 27 23 44 31 30 14 30 14 -17 9 -51 -6 -67 4 -43 27 8
9 15 20 15 26 0 5 8 15 18 20 13 8 13 10 3 11 -25 0 3 21 41 30 46 11 45 11
23 -5z m849 0 c-18 -14 -18 -14 5 -10 24 4 24 4 5 -18 -24 -28 -46 -67 -38
-67 3 0 18 7 34 16 17 10 35 14 46 10 18 -7 18 -8 -2 -24 -11 -9 -31 -25 -45
-34 l-24 -17 23 -7 c22 -6 22 -7 4 -20 -16 -11 -19 -27 -20 -94 -1 -45 -5 -87
-10 -93 -4 -7 -10 -41 -13 -77 -4 -41 -6 -10 -5 88 1 118 -2 152 -12 152 -18
0 -21 -12 -27 -140 -2 -63 -8 -146 -12 -185 -7 -59 -9 -42 -13 114 -5 176 -6
184 -22 167 -16 -15 -18 -40 -19 -184 -1 -99 -4 -157 -9 -142 -6 18 -8 4 -9
-47 -1 -59 -5 -77 -21 -93 -11 -11 -25 -20 -31 -20 -7 0 0 9 15 21 l26 20 0
190 c0 140 -3 189 -12 189 -9 0 -9 3 0 12 7 7 12 18 12 25 0 11 -5 11 -20 3
-18 -10 -20 -22 -21 -138 -1 -125 -13 -266 -19 -227 -2 11 -6 -5 -10 -35 -4
-34 -7 25 -8 153 -2 162 -5 207 -15 207 -32 0 -37 -24 -37 -174 0 -152 -7
-229 -19 -221 -4 2 -13 0 -21 -5 -18 -11 -28 -170 -11 -170 7 0 9 -5 6 -10
-20 -33 -25 15 -27 287 l-3 296 -85 50 c-47 27 -75 47 -62 44 20 -5 22 -3 10
11 -7 9 21 -2 63 -25 l75 -40 127 63 c78 38 121 64 110 66 -10 3 -31 -2 -47
-10 -15 -7 -25 -9 -22 -3 11 17 -10 13 -24 -4 -7 -9 -15 -13 -18 -10 -3 3 -12
-1 -20 -8 -13 -10 -14 -8 -7 13 4 14 15 30 24 37 27 21 -4 15 -65 -12 -31 -14
-58 -25 -59 -25 -1 0 0 12 3 26 4 23 8 25 33 20 20 -4 67 9 161 45 73 28 144
57 158 65 33 18 49 18 24 -1z m-674 -15 c22 -11 40 -23 40 -25 0 -7 -73 24
-84 36 -16 15 2 11 44 -11z m-314 -68 c-18 -16 -18 -16 -6 6 6 13 14 21 18 18
3 -4 -2 -14 -12 -24z m1021 -114 c-3 -8 -6 -5 -6 6 -1 11 2 17 5 13 3 -3 4
-12 1 -19z m-1110 -55 c-3 -10 -5 -4 -5 12 0 17 2 24 5 18 2 -7 2 -21 0 -30z
m-30 -10 c-3 -10 -5 -4 -5 12 0 17 2 24 5 18 2 -7 2 -21 0 -30z m1283 7 c0 -5
-4 -10 -10 -10 -5 0 -10 5 -10 10 0 6 5 10 10 10 6 0 10 -4 10 -10z m-40 -237
l-21 -27 6 34 6 35 -32 -30 c-32 -30 -32 -30 5 18 34 46 47 75 27 63 -11 -7
-21 30 -11 41 4 4 11 19 15 32 5 18 4 22 -5 16 -9 -5 -11 -4 -6 4 4 6 12 9 17
6 5 -4 10 0 11 7 1 7 4 -29 5 -80 3 -82 1 -96 -17 -119z m-73 41 c-3 -3 -12
-4 -19 -1 -8 3 -5 6 6 6 11 1 17 -2 13 -5z m-61 -56 c-18 -26 -22 -17 -5 14 6
11 13 17 16 15 3 -3 -2 -16 -11 -29z m341 -50 c-3 -8 -6 -5 -6 6 -1 11 2 17 5
13 3 -3 4 -12 1 -19z m-397 -13 c-7 -8 -17 -15 -23 -15 -5 0 -2 9 8 20 21 23
35 19 15 -5z m380 -82 c-7 -26 -26 -67 -42 -91 -16 -23 -27 -46 -24 -51 3 -4
-6 -18 -19 -31 -22 -21 -27 -22 -55 -10 l-31 13 40 41 c22 23 51 64 65 91 14
28 26 44 26 38 0 -25 19 -12 31 22 18 50 24 34 9 -22z m-1495 27 c-3 -5 -10
-10 -16 -10 -5 0 -9 5 -9 10 0 6 7 10 16 10 8 0 12 -4 9 -10z m1046 -23 l-24
-22 19 27 c10 14 21 24 23 22 3 -3 -6 -15 -18 -27z m149 23 c0 -5 -4 -10 -10
-10 -5 0 -10 5 -10 10 0 6 5 10 10 10 6 0 10 -4 10 -10z m170 0 c0 -5 -4 -10
-10 -10 -5 0 -10 5 -10 10 0 6 5 10 10 10 6 0 10 -4 10 -10z m-1120 -10 c0 -5
-2 -10 -4 -10 -3 0 -8 5 -11 10 -3 6 -1 10 4 10 6 0 11 -4 11 -10z m-56 -97
c7 3 35 -16 61 -43 l47 -48 -23 -12 c-21 -12 -26 -10 -52 21 -37 43 -87 120
-87 133 0 6 9 -4 20 -22 12 -20 26 -32 34 -29z m922 20 c-10 -10 -19 5 -10 18
6 11 8 11 12 0 2 -7 1 -15 -2 -18z m152 -25 c-25 -47 -144 -178 -161 -178 -6
0 19 30 55 68 35 37 77 86 93 110 36 54 43 54 13 0z m-362 -24 c-11 -8 -27
-14 -35 -14 -9 0 -3 8 14 19 34 21 50 17 21 -5z m-506 -39 c13 -14 21 -25 18
-25 -2 0 -15 11 -28 25 -13 14 -21 25 -18 25 2 0 15 -11 28 -25z m200 5 c0 -5
-4 -10 -10 -10 -5 0 -10 5 -10 10 0 6 5 10 10 10 6 0 10 -4 10 -10z m-377 -48
c15 -16 15 -21 4 -30 -11 -9 -20 -5 -42 18 -16 17 -23 30 -16 30 7 0 9 5 5 11
-10 17 28 -5 49 -29z m1287 -12 c0 -5 -2 -10 -4 -10 -3 0 -8 5 -11 10 -3 6 -1
10 4 10 6 0 11 -4 11 -10z m-25 -20 c3 -5 2 -10 -4 -10 -5 0 -13 5 -16 10 -3
6 -2 10 4 10 5 0 13 -4 16 -10z m-235 -10 c0 -5 -4 -10 -10 -10 -5 0 -10 5
-10 10 0 6 5 10 10 10 6 0 10 -4 10 -10z m-1060 -14 c0 -3 -4 -8 -10 -11 -5
-3 -10 -1 -10 4 0 6 5 11 10 11 6 0 10 -2 10 -4z m1275 -6 c3 -5 1 -10 -4 -10
-6 0 -11 5 -11 10 0 6 2 10 4 10 3 0 8 -4 11 -10z"/>
<path d="M707 1479 c-26 -18 -45 -34 -43 -36 4 -4 57 30 91 59 20 17 -2 6 -48
-23z"/>
<path d="M1170 1340 c0 -5 5 -10 10 -10 6 0 10 5 10 10 0 6 -4 10 -10 10 -5 0
-10 -4 -10 -10z"/>
<path d="M1145 820 c-3 -6 1 -7 9 -4 18 7 21 14 7 14 -6 0 -13 -4 -16 -10z"/>
<path d="M826 1415 c-3 -8 -1 -15 4 -15 6 0 10 7 10 15 0 8 -2 15 -4 15 -2 0
-6 -7 -10 -15z"/>
</g>
</svg>
